<svg width="20" height="26" fill="none" xmlns="http://www.w3.org/2000/svg"><path d="M18.356.398H1.644C.736.398 0 1.135 0 2.043V24.25c0 .908.736 1.645 1.644 1.645h16.712c.909 0 1.644-.737 1.644-1.645V2.042c0-.908-.736-1.644-1.644-1.644zM9.049 21.83a.614.614 0 01-.612.612H3.37a.614.614 0 01-.612-.612v-.028c0-.337.276-.612.612-.612h5.068c.337 0 .612.275.612.612v.028zm8.068-4.344a.614.614 0 01-.612.612H3.369a.614.614 0 01-.613-.612v-.027c0-.336.275-.612.613-.612h13.136c.336 0 .612.275.612.612v.027zm0-4.343a.614.614 0 01-.612.613H3.369a.614.614 0 01-.613-.613v-.026c0-.337.275-.613.613-.613h13.136c.336 0 .612.275.612.613v.026zm0-4.343a.614.614 0 01-.612.612H3.369a.614.614 0 01-.613-.612v-.027c0-.336.275-.612.613-.612h13.136c.336 0 .612.275.612.612V8.8zm0-4.343a.614.614 0 01-.612.612H3.369a.614.614 0 01-.613-.612V4.43c0-.337.275-.613.613-.613h13.136c.336 0 .612.275.612.613v.027z" fill="#1F2035"/></svg>
