<svg width="7" height="11" fill="none" xmlns="http://www.w3.org/2000/svg" viewBox="0 0 7 11">
  <path d="M.003 5.234c0 .02.005.04.013.06.003.006.005.013.009.018.013.022.03.042.052.056H.08v.001l3.083 1.807c.003.001.005 0 .008.002a.16.16 0 00.074.02.157.157 0 00.074-.02c.002-.002.006-.001.008-.003L6.354 5.37a.159.159 0 00.062-.075.16.16 0 00.014-.06c0-.005.003-.008.003-.012l-.002-.006a.156.156 0 00-.021-.068L3.382.078 3.378.075 3.365.058A.183.183 0 003.347.04L3.333.028C3.33.027 3.329.025 3.327.023L3.317.02A.152.152 0 003.294.01l-.02-.006a.113.113 0 00-.02-.002L3.243 0l-.01.002c-.007 0-.013 0-.02.002L3.193.01a.147.147 0 00-.022.01c-.003.001-.007.001-.01.003l-.005.004L3.14.04a.167.167 0 00-.017.018L3.11.072l-.005.006L.023 5.147a.156.156 0 00-.021.07L0 5.221l.003.012zM3.405.745l2.462 4.122-2.462-1.13V.746zm-.322 2.992L.569 4.869 3.083.736v3.001zm0 .354v2.664L.512 5.249l2.57-1.158zm.322 2.661v-2.66l2.52 1.157-2.52 1.503z" fill="#000"/>
  <path d="M6.42 5.785a.163.163 0 00-.201-.03L3.244 7.51.27 5.755a.161.161 0 00-.214.232l3.056 4.305.009.008a.168.168 0 00.02.02c.003.003.006.008.01.01.002.002.006.002.01.004.005.002.01.007.015.01.02.01.043.016.067.016h.001a.157.157 0 00.068-.016l.015-.01c.003-.003.007-.002.01-.004.004-.002.006-.007.01-.01a.159.159 0 00.02-.02l.008-.008 3.057-4.305a.161.161 0 00-.013-.202zM3.082 7.79v1.902L.757 6.417l2.326 1.374zm.322 1.902V7.791l2.326-1.374-2.326 3.276z" fill="#000"/>
</svg>
