<svg width="12" height="16" fill="none" xmlns="http://www.w3.org/2000/svg" viewBox="0 0 12 16">
  <path d="M1.083 14.389L2.54 8.95l3.149.844-1.457 5.438-1.153-1.996-1.996 1.152z" fill="#fff"/>
  <path fill-rule="evenodd" clip-rule="evenodd" d="M2.33 8.587l3.722.997-1.094 4.084c-.231.86-1.387 1.013-1.832.241l-.155-.268-.269.155c-.771.445-1.696-.265-1.466-1.125l1.095-4.084zm.42.726l-1.196 4.461 1.377-.795a.296.296 0 01.405.109l.795 1.376 1.195-4.46-2.576-.691z" fill="#909BF5"/>
  <path d="M8.38 15.232L6.923 9.794l3.148-.844 1.457 5.439-1.996-1.153-1.152 1.996z" fill="#fff"/>
  <path fill-rule="evenodd" clip-rule="evenodd" d="M6.56 9.584l3.72-.997 1.095 4.084c.23.86-.694 1.57-1.466 1.125l-.268-.155-.155.268c-.446.772-1.602.62-1.832-.24L6.56 9.583zm.725.42l1.196 4.46.795-1.376a.296.296 0 01.404-.108l1.377.794-1.195-4.461-2.577.69z" fill="#909BF5"/>
  <path d="M11.529 5.904a5.371 5.371 0 11-10.743 0 5.371 5.371 0 0110.743 0z" fill="#fff"/>
  <path fill-rule="evenodd" clip-rule="evenodd" d="M6.157 10.683a4.779 4.779 0 100-9.557 4.779 4.779 0 000 9.557zm0 .592a5.371 5.371 0 100-10.742 5.371 5.371 0 000 10.742z" fill="#909BF5"/>
  <path d="M9.646 5.904a3.489 3.489 0 11-6.977 0 3.489 3.489 0 016.977 0z" fill="#fff"/>
  <path fill-rule="evenodd" clip-rule="evenodd" d="M6.157 8.8a2.896 2.896 0 100-5.792 2.896 2.896 0 000 5.792zm0 .593a3.489 3.489 0 100-6.977 3.489 3.489 0 000 6.977z" fill="#909BF5"/>
</svg>
