<svg width="33" height="33" fill="none" xmlns="http://www.w3.org/2000/svg" viewBox="0 0 33 33">
  <path d="M4.741 14.754c.576-5.133 4.701-9.22 9.785-9.981M14.91 27.492c-5.372-.57-9.593-4.848-10.169-10.077M27.67 17.7c-.672 5.229-4.893 9.316-10.265 9.887M17.884 4.773c5.085.76 9.114 4.753 9.786 9.79" stroke="#C4C4C4" stroke-width="1.5" stroke-miterlimit="10" stroke-linecap="round" stroke-linejoin="round"/>
  <path d="M16.253 24.734v6.655M16.253.875v6.654M7.715 16.179L1 16.084M31.795 16.179l-6.715-.095M16.253 14.563c1.378 0 2.495-1.107 2.495-2.472S17.63 9.62 16.253 9.62c-1.377 0-2.494 1.106-2.494 2.471s1.117 2.472 2.494 2.472zM20.954 20.172c0 2.757-2.11 2.472-4.7 2.472-2.591 0-4.702.285-4.702-2.471 0-2.757 2.111-4.278 4.701-4.278 2.59 0 4.701 1.52 4.701 4.277z" stroke="#C4C4C4" stroke-width="1.5" stroke-miterlimit="10" stroke-linecap="round"/>
</svg>
