<svg width="43" height="43" fill="none" xmlns="http://www.w3.org/2000/svg" viewBox="0 0 43 43">
  <path d="M5.043 43a5.05 5.05 0 01-5.042-5.045c0-1.348.524-2.614 1.477-3.568l11.4-11.406-2.905-2.904a.907.907 0 01-.134-.134l-3.102-3.101a.767.767 0 01-.114-.113l-3.13-3.13a.621.621 0 01-.078-.077L.228 10.337a.78.78 0 010-1.103l9-9.006a.812.812 0 011.11 0L22.982 12.87l7.654-7.659s0-.003.001-.001c.003-.001.003-.002.003-.003a.786.786 0 01.166-.124L38.95.27a.88.88 0 01.085-.043 2.751 2.751 0 013.627 3.592.755.755 0 01-.06.114l-4.7 8.233a.787.787 0 01-.333.324c-.53.584-1.712 1.767-4.358 4.415l-3.095 3.096 12.344 12.34a.78.78 0 01.312 1.293l-9 9.006a.777.777 0 01-.55.228h-.13a.777.777 0 01-.551-.228L20.01 30.114 8.609 41.522A5.01 5.01 0 015.043 43zM2.09 36.102a3.49 3.49 0 004.805 4.807L2.09 36.103zm28.96 2.845l2.107 2.106 7.902-7.908-12.044-12.04-7.902 7.907 2.384 2.384 2.645-2.646a.778.778 0 111.101 1.102L24.6 32.497l2.123 2.123 2.643-2.644a.778.778 0 111.102 1.102l-2.643 2.644 2.124 2.124 2.641-2.643a.779.779 0 111.102 1.102l-2.643 2.642zM3.13 34.938l4.928 4.931 28.058-28.074-4.928-4.93L3.13 34.937zm8.428-15.479l2.42 2.42 7.903-7.907L9.784 1.878 1.882 9.784l2.124 2.124 2.59-2.592a.779.779 0 111.101 1.102L5.11 13.01l2.123 2.123 2.589-2.59a.779.779 0 111.101 1.102l-2.588 2.59 2.124 2.124 2.588-2.589a.779.779 0 111.101 1.102L11.56 19.46zm20.89-13.536l4.599 4.6L39.37 6.45 36.47 3.546l-4.021 2.377zm5.407-3.194l2.318 2.319 1.073-1.879a1.192 1.192 0 00-1.548-1.528l-1.843 1.088z" fill="#909BF5"/>
</svg>
