<svg width="27" height="28" fill="none" xmlns="http://www.w3.org/2000/svg" viewBox="0 0 27 28">
  <path d="M17.493 9.908a4.515 4.515 0 004.514-4.517 4.515 4.515 0 10-9.028 0 4.515 4.515 0 004.514 4.517zM11.417 14.25c1.562-1.216 3.646-1.911 6.076-1.911 4.688 0 8.507 2.78 8.507 7.816 0 4.69-3.299 4.517-7.292 4.517" stroke="#C4C4C4" stroke-width="1.5" stroke-miterlimit="10" stroke-linecap="round"/>
  <path d="M14.715 26.409H2.91A1.927 1.927 0 011 24.499v-5.907c0-1.042.868-1.91 1.91-1.91h11.805c1.042 0 1.91.868 1.91 1.91v5.906c0 1.042-.868 1.91-1.91 1.91z" stroke="#C4C4C4" stroke-width="1.5" stroke-miterlimit="10" stroke-linecap="round" stroke-linejoin="round"/>
</svg>
