<svg width="12" height="14" fill="none" xmlns="http://www.w3.org/2000/svg" viewBox="0 0 12 14">
  <path d="M3.667.875v2.042a.88.88 0 01-.876.874H.751v6.71c0 .479.394.875.873.875H2.5v.874c0 .48.395.875.875.875h7a.88.88 0 00.875-.875V3.5a.88.88 0 00-.876-.874H9.5V1.75a.88.88 0 00-.875-.875H3.667zm-.584.17L.922 3.208h1.87a.284.284 0 00.291-.29V1.044zM9.5 3.208h.874c.167 0 .292.125.292.292v8.75a.285.285 0 01-.292.291h-7a.285.285 0 01-.29-.291v-.874h5.541A.88.88 0 009.5 10.5V3.208zm-6.417 1.75h1.459a.292.292 0 110 .584H3.083a.292.292 0 110-.584zm2.334 0a.292.292 0 110 .584.292.292 0 010-.584zM3.083 6.417h3.938a.292.292 0 010 .584H3.083a.292.292 0 110-.584zm0 1.458h3.938a.292.292 0 010 .583H3.083a.292.292 0 010-.583z" fill="#757575"/>
</svg>
