<svg width="30" height="32" fill="none" xmlns="http://www.w3.org/2000/svg" viewBox="0 0 30 32">
  <path d="M26.917 25.631h-14.85c-1.078 0-1.917-.867-1.917-1.98V2.85c0-1.115.839-1.982 1.917-1.982h14.73c1.078 0 1.916.867 1.916 1.981v20.676c.24 1.238-.718 2.105-1.796 2.105zM13.623 9.783H25.48M13.623 13.25H25.48M13.623 16.593H25.48M13.623 20.06H25.48" stroke="#909BF5" stroke-width="1.5" stroke-miterlimit="10" stroke-linecap="round" stroke-linejoin="round"/>
  <path d="M17.917 30.881H3.067c-1.078 0-1.917-.867-1.917-1.98V8.1c0-1.115.839-1.982 1.917-1.982h14.73c1.078 0 1.916.867 1.916 1.981v20.676c.24 1.238-.718 2.105-1.796 2.105z" fill="#fff" stroke="#909BF5" stroke-width="1.5" stroke-miterlimit="10" stroke-linecap="round" stroke-linejoin="round"/>
  <path d="M4.624 15.033H16.48M4.624 18.5H16.48M4.624 21.843H16.48M4.624 25.31H16.48" stroke="#909BF5" stroke-width="1.5" stroke-miterlimit="10" stroke-linecap="round" stroke-linejoin="round"/>
</svg>
