<svg width="90" height="30" fill="none" xmlns="http://www.w3.org/2000/svg" viewBox="0 0 90 30">
  <path d="M14.986 0C6.71 0 0 6.708 0 14.983c0 8.274 6.708 14.985 14.986 14.985 8.274 0 14.985-6.708 14.985-14.985C29.971 6.708 23.263 0 14.985 0zm4.24 22.451l-.03-9.33-9.343 9.333-4.577-.003L16.98 10.754H12.7a2.4 2.4 0 00-2.397 2.398c0 .55.187 1.056.5 1.461l-2.295 2.3a5.612 5.612 0 01-1.443-3.758 5.641 5.641 0 015.636-5.635h9.76v14.934l-3.234-.003z" fill="#837FE5"/>
  <path d="M41.742 24.613h-4.529V9.396h4.53v3.682c.782-2.834 2.736-4.008 4.3-4.008 1.075 0 1.889.195 2.605.555l-.814 4.072c-.813-.39-1.597-.457-2.313-.457-2.606 0-3.779 2.053-3.779 6.061v5.312zM53.241 1.12c1.53 0 2.77 1.14 2.77 2.639 0 1.499-1.237 2.672-2.77 2.672-1.53 0-2.834-1.173-2.834-2.672 0-1.5 1.304-2.64 2.834-2.64zm2.25 23.493h-4.496V9.396h4.495v15.217zM63.603 18.356c-4.562-1.237-4.593-3.55-4.562-4.952.033-2.249 2.737-4.334 5.93-4.334 3.03 0 6.224 1.335 6.257 5.05h-4.27c-.033-1.14-1.008-1.335-1.727-1.335-.978 0-1.63.457-1.597 1.14.033.457.423.911 1.335 1.14l2.575.686c3.681 1.008 4.138 3.453 4.138 4.43 0 3.225-3.389 4.758-6.582 4.758-3.096 0-6.321-1.856-6.354-5.245h4.236c.033.88 1.009 1.759 2.249 1.759 1.009-.034 1.856-.488 1.856-1.271 0-.652-.39-1.01-1.5-1.304l-1.984-.522zM88.853 21.843c-1.53 2.28-4.367 3.096-6.94 3.096-4.367 0-7.95-3.194-7.95-7.982 0-4.79 3.583-7.884 7.95-7.884 4.334 0 7.787 3.225 7.787 8.015 0 .39-.034 1.01-.064 1.402H78.494c.228 1.759 2.15 2.542 3.745 2.542 1.238 0 2.575-.457 3.325-1.433l3.289 2.244zm-3.715-6.19c-.229-1.856-1.923-2.606-3.194-2.606-1.27 0-2.999.686-3.389 2.606h6.583z" fill="#1F2035"/>
</svg>
