<svg width="41" height="51" fill="none" xmlns="http://www.w3.org/2000/svg" viewBox="0 0 41 51">
  <path d="M39.066 9.729V35.17c0 1.672-1.307 2.972-2.988 2.972H12.921c-1.68 0-2.987-1.3-2.987-2.972v-31.2C9.934 2.3 11.24 1 12.922 1h18.114" stroke="#fff" stroke-width="2" stroke-miterlimit="10" stroke-linecap="round" stroke-linejoin="round"/>
  <path d="M31.036 1v5.757c0 1.672 1.307 2.972 2.988 2.972h5.042L31.036 1zM31.066 20.729V46.17c0 1.672-1.307 2.972-2.988 2.972H4.922c-1.681 0-2.988-1.3-2.988-2.972v-31.2C1.934 13.3 3.24 12 4.922 12h18.114" stroke="#fff" stroke-width="2" stroke-miterlimit="10" stroke-linecap="round" stroke-linejoin="round"/>
  <path d="M23.036 12v5.757c0 1.672 1.307 2.972 2.988 2.972h5.042L23.036 12z" stroke="#fff" stroke-width="2" stroke-miterlimit="10" stroke-linecap="round" stroke-linejoin="round"/>
</svg>
