<svg width="33" height="31" fill="none" xmlns="http://www.w3.org/2000/svg" viewBox="0 0 33 31">
  <path d="M3.658 6.045l3.347 3.22 8.172-8.098" stroke="#C4C4C4" stroke-width="1.5" stroke-miterlimit="10" stroke-linecap="round" stroke-linejoin="round"/>
  <path d="M13.307 5.07c.197.683.394 1.366.295 2.049 0 3.414-2.855 6.244-6.3 6.244C3.854 13.363 1 10.533 1 7.119 1 3.704 3.855.875 7.301.875c1.674 0 3.15.585 4.234 1.659M20.79 6.045l3.249 3.22 8.172-8.098" stroke="#C4C4C4" stroke-width="1.5" stroke-miterlimit="10" stroke-linecap="round" stroke-linejoin="round"/>
  <path d="M30.34 5.07c.197.683.393 1.366.295 2.049 0 3.414-2.855 6.244-6.301 6.244s-6.301-2.83-6.301-6.244c0-3.415 2.855-6.244 6.3-6.244 1.675 0 3.152.585 4.235 1.659M3.658 21.946l3.348 3.22 8.172-8" stroke="#C4C4C4" stroke-width="1.5" stroke-miterlimit="10" stroke-linecap="round" stroke-linejoin="round"/>
  <path d="M13.307 20.971c.197.683.394 1.366.295 2.049 0 3.415-2.855 6.244-6.3 6.244C3.854 29.264 1 26.434 1 23.02c0-3.415 2.855-6.244 6.301-6.244 1.674 0 3.15.586 4.234 1.659M20.79 21.948l3.249 3.22 8.172-8" stroke="#C4C4C4" stroke-width="1.5" stroke-miterlimit="10" stroke-linecap="round" stroke-linejoin="round"/>
  <path d="M30.34 20.972c.197.683.393 1.366.295 2.049 0 3.414-2.855 6.244-6.301 6.244s-6.301-2.83-6.301-6.244c0-3.415 2.855-6.244 6.3-6.244 1.675 0 3.152.585 4.235 1.659" stroke="#C4C4C4" stroke-width="1.5" stroke-miterlimit="10" stroke-linecap="round" stroke-linejoin="round"/>
</svg>
