<svg width="26" height="26" fill="none" xmlns="http://www.w3.org/2000/svg" viewBox="0 0 26 26">
  <path d="M26 23.903l-7.495-7.528a10.163 10.163 0 002.033-6.124c0-2.737-1.068-5.312-3.008-7.248A10.212 10.212 0 0010.27 0a10.211 10.211 0 00-7.262 3.002A10.178 10.178 0 000 10.251c0 2.737 1.068 5.312 3.008 7.248a10.21 10.21 0 007.261 3.002c2.238 0 4.367-.71 6.128-2.024L23.886 26 26 23.903zM5.116 15.395A7.221 7.221 0 012.98 10.25c0-1.944.757-3.77 2.135-5.145a7.248 7.248 0 015.153-2.13c1.947 0 3.777.756 5.154 2.13a7.221 7.221 0 012.135 5.145c0 1.943-.758 3.77-2.135 5.144a7.247 7.247 0 01-5.154 2.13 7.247 7.247 0 01-5.153-2.13z" fill="#1F2035"/>
</svg>
