<svg width="21" height="13" fill="none" xmlns="http://www.w3.org/2000/svg" viewBox="0 0 21 13">
  <path fill-rule="evenodd" clip-rule="evenodd" d="M.744 7.044a11.516 11.516 0 004.1 4.002c1.717 1.015 3.532 1.522 5.445 1.522 1.913 0 3.728-.507 5.446-1.503 1.717-1.014 3.083-2.342 4.098-4.02.136-.255.215-.508.215-.742 0-.254-.079-.507-.215-.761a11.507 11.507 0 00-4.098-4.002C14.017.525 12.202.018 10.289.018 8.376.018 6.56.525 4.843 1.54A11.517 11.517 0 00.744 5.542a1.607 1.607 0 00-.214.76c0 .235.078.488.214.742zm5.329-4.606a4.75 4.75 0 00-.664 2.46c0 1.346.47 2.498 1.425 3.454.956.957 2.108 1.425 3.455 1.425s2.498-.468 3.435-1.425c.957-.956 1.444-2.108 1.444-3.455 0-.878-.234-1.698-.663-2.459 1.66.86 3.044 2.147 4.137 3.865-.956 1.483-2.166 2.674-3.63 3.552a8.95 8.95 0 01-4.723 1.328c-1.698 0-3.279-.45-4.743-1.328-1.444-.878-2.655-2.069-3.63-3.552 1.113-1.718 2.498-3.006 4.157-3.865zm1.874.118c.644-.645 1.424-.977 2.342-.977.137 0 .253.06.37.157a.486.486 0 01.137.37c0 .137-.039.274-.136.371a.572.572 0 01-.371.156c-.625 0-1.17.215-1.6.664a2.166 2.166 0 00-.664 1.6.532.532 0 01-.527.527.502.502 0 01-.371-.155.502.502 0 01-.156-.372c0-.917.331-1.698.976-2.341z" fill="#BEBEBE"/>
</svg>
