<svg width="33" height="41" fill="none" xmlns="http://www.w3.org/2000/svg" viewBox="0 0 33 41">
  <path d="M31.066 10.657V36.1c0 1.672-1.307 2.972-2.988 2.972H4.922c-1.681 0-2.988-1.3-2.988-2.972V4.9c0-1.671 1.307-2.971 2.988-2.971h18.114" fill="#fff"/>
  <path d="M31.066 10.657V36.1c0 1.672-1.307 2.972-2.988 2.972H4.922c-1.681 0-2.988-1.3-2.988-2.972V4.9c0-1.671 1.307-2.971 2.988-2.971h18.114" stroke="#757575" stroke-width="2" stroke-miterlimit="10" stroke-linecap="round" stroke-linejoin="round"/>
  <path d="M23.036 1.929v5.757c0 1.671 1.307 2.971 2.988 2.971h5.042l-8.03-8.728z" fill="#fff" stroke="#757575" stroke-width="2" stroke-miterlimit="10" stroke-linecap="round" stroke-linejoin="round"/>
</svg>
